<svg id="Layer_1" data-name="Layer 1" xmlns="http://www.w3.org/2000/svg" viewBox="0 0 400 300" width="0" height="0" class="illustration styles_illustrationTablet__1DWOa"><path d="M84.67,258.79S41.12,207.08,62.89,142.52,150,32,232.91,47.28s147.69,54.34,90.73,211.2Z" fill="#dddbdb" opacity="0.18"></path><path d="M325.5,70.06a5.47,5.47,0,0,0-1.81.32,9,9,0,0,0,.43-2.76,9.13,9.13,0,1,0-18.25,0q0,.36,0,.72a6.53,6.53,0,0,0-3-.72,6.61,6.61,0,0,0,0,13.22H325.5a5.39,5.39,0,0,0,0-10.78Z" fill="#dddbdb" opacity="0.3"></path><path d="M220.16,62.81a3.91,3.91,0,0,0-1.33.23,6.49,6.49,0,0,0,.32-2,6.71,6.71,0,0,0-13.42,0c0,.18,0,.36,0,.53a4.86,4.86,0,1,0-2.2,9.19h16.6a4,4,0,1,0,0-7.92Z" fill="#dddbdb" opacity="0.3"></path><path d="M108.56,81a6.11,6.11,0,0,0-2.06.36A10.59,10.59,0,0,0,107,78.2a10.43,10.43,0,1,0-20.85,0c0,.28,0,.55,0,.82A7.55,7.55,0,1,0,82.76,93.3h25.8a6.16,6.16,0,1,0,0-12.31Z" fill="#dddbdb" opacity="0.3"></path><path d="M250.69,214.49c-50.51-16.49-87.22-39.16-109.12-55.27-23.74-17.46-35.69-31.22-35.81-31.36l.76-.65c.47.55,48.09,54.86,144.48,86.33Z" fill="#ccc"></path><path d="M250.71,224c-.47-.13-47-13.36-92.44-37.32a242.49,242.49,0,0,1-51.38-36.19,152.28,152.28,0,0,1-16.92-18l.8-.59a152.45,152.45,0,0,0,16.82,17.9,241.63,241.63,0,0,0,51.14,36c45.33,23.92,91.79,37.12,92.25,37.25Z" fill="#ccc"></path><rect x="120.97" y="142.44" width="1" height="91.45" fill="#ccc"></rect><rect x="141.6" y="158.98" width="1" height="74.91" fill="#ccc"></rect><rect x="162.23" y="173" width="1" height="60.89" fill="#ccc"></rect><rect x="182.86" y="185.07" width="1" height="48.82" fill="#ccc"></rect><rect x="203.49" y="195.49" width="1" height="38.4" fill="#ccc"></rect><rect x="224.12" y="204.47" width="1" height="29.42" fill="#ccc"></rect><rect x="83.79" y="106.66" width="6.58" height="149.79" fill="#dbdbdb"></rect><rect x="99.56" y="106.66" width="6.58" height="149.79" fill="#e6e6e6"></rect><rect x="87.08" y="124.3" width="15.77" height="6.48" fill="#e6e6e6"></rect><rect x="87.08" y="148.89" width="15.77" height="6.48" fill="#e6e6e6"></rect><rect x="74.31" y="231.52" width="165.28" height="4.75" fill="#e6e6e6"></rect><rect x="286.52" y="108.36" width="34.76" height="146.38" fill="#e6e6e6"></rect><rect x="291.3" y="98.67" width="25.2" height="9.7" fill="#e6e6e6"></rect><rect x="294.21" y="92.95" width="19.39" height="6.3" fill="#e6e6e6"></rect><rect x="236.59" y="73.39" width="46.05" height="182.35" fill="#e6e6e6"></rect><rect x="245.51" y="82.4" width="4.6" height="156.55" rx="2.3" fill="#fff" opacity="0.2"></rect><rect x="257.31" y="82.4" width="4.6" height="156.55" rx="2.3" fill="#fff" opacity="0.2"></rect><rect x="269.11" y="82.4" width="4.6" height="156.55" rx="2.3" fill="#fff" opacity="0.2"></rect><polygon points="278.62 73.39 240.61 73.39 243.23 66.63 275.99 66.63 278.62 73.39" fill="#e6e6e6"></polygon><path d="M191.92,116.57s9.91-12,10.25-11.92,9.24,8.67,9.24,8.67l-16.16,19.49Z" fill="#5C9CE5"></path><path d="M191.92,116.57s9.91-12,10.25-11.92,9.24,8.67,9.24,8.67l-16.16,19.49Z" fill="#fff" opacity="0.2"></path><path d="M207.3,121.74a6.33,6.33,0,0,0,.37-2.9,3.29,3.29,0,0,0-.84-2.41,2.22,2.22,0,0,0-1.73-.44,4.55,4.55,0,0,0-1.69.66,5.37,5.37,0,0,0-2.18,2.15c-.82,1.67-1.36,5.69.86,6.56C204.14,126.16,206.58,123.38,207.3,121.74Z" fill="#5C9CE5"></path><path d="M148.52,48.67s-2.25-4.75,0-7.16a10.72,10.72,0,0,0,2.66-5.17,4.11,4.11,0,0,1,2.38,4.25s1.72-3.91.05-6.83c0,0,5.38-.17,5.72,5.83a30.64,30.64,0,0,1-1.82,11.52Z" fill="#ffd200"></path><path d="M199.17,193.37H151.68l1.5-11.25s-.75-6.74,2.5-19,4.12-46.36,3.65-50.23-8.4-24.74-8.4-24.74-2.5.12-3.37.25-2.38-1.88-.88-6.44,10.5-14.06,10.5-14.06,4.25,15.12,6.37,17.87,12,10.25,12,10.25V91.4l8.87-3.49,0,1.3.21,7.69s.71.23,1.76.66c2.39,1,6.58,2.91,8.49,5.34,2.75,3.5,3.25,41.74,4.25,48.61S199.17,193.37,199.17,193.37Z" fill="#5C9CE5"></path><path d="M152.83,184.75s20.93-23.87,22.59-46.86c0,0,3,22.66-5.66,37.66s-13,17.82-13,17.82h-5.08Z" opacity="0.1"></path><path d="M199.17,151.52s-4.25-7.13-5.08-13.63-3.34-19.16-3.34-19.16-.33,15.5,1.17,22.16,7.25,15.83,7.25,15.83Z" opacity="0.1"></path><path d="M150.93,88.16a20.21,20.21,0,0,0,5.75-7.62,31.19,31.19,0,0,1-4.4,11.22Z" opacity="0.1"></path><path d="M157.51,70.83l-6.08,8.83s-.05-2.27-.16-4.94c-.14-3.34-.38-7.34-.75-8.31-.67-1.75-.92-6.74-.92-6.74h6.08C155.6,68.41,157.51,70.83,157.51,70.83Z" fill="#5C9CE5"></path><rect x="148.52" y="57.59" width="8.16" height="2.33" fill="#5C9CE5"></rect><rect x="146.05" y="53.96" width="13.72" height="3.62" fill="#5C9CE5"></rect><rect x="146.93" y="48.26" width="12" height="5.71" fill="#5C9CE5"></rect><rect x="147.77" y="193.37" width="56.33" height="9.83" fill="#5C9CE5"></rect><rect x="147.77" y="193.37" width="56.33" height="9.83" opacity="0.1"></rect><rect x="142.1" y="203.2" width="65.59" height="39.65" fill="#5C9CE5"></rect><rect x="142.1" y="203.2" width="65.59" height="39.65" opacity="0.1"></rect><rect x="138.77" y="242.86" width="72.64" height="11.66" fill="#5C9CE5"></rect><rect x="138.77" y="242.85" width="72.64" height="11.67" opacity="0.1"></rect><rect x="154.85" y="210.2" width="6.27" height="26.66" rx="3.14" fill="#5C9CE5"></rect><rect x="171.76" y="210.2" width="6.27" height="26.66" rx="3.14" fill="#5C9CE5"></rect><rect x="188.67" y="210.2" width="6.27" height="26.66" rx="3.14" fill="#5C9CE5"></rect><path d="M211.41,247.17v7.35H138.77V242.85h3.33V203.2h2.18c1.68,5.64,4.51,19.92,30.89,37.18C191.81,251.27,211.41,247.17,211.41,247.17Z" opacity="0.1"></path><path d="M186.43,97.56a12.92,12.92,0,0,1-3.81.26,10.7,10.7,0,0,1-7.07-3V91.4l8.76-2.4.15.21.21,7.69S185.38,97.13,186.43,97.56Z" opacity="0.1"></path><path d="M199.83,79.1l-11.58,1.36a9.75,9.75,0,0,0-1.8-2.66l7.6-9.22a.39.39,0,0,0-.55-.54l-9.41,8a9.08,9.08,0,0,0-2.81-1l-1.1-12.17a.39.39,0,0,0-.77,0L178.32,75a9,9,0,0,0-2.81,1l-9.42-8a.38.38,0,0,0-.54.54l7.59,9.22a9.94,9.94,0,0,0-1.79,2.66L159.76,79.1a.39.39,0,0,0-.15.76l10.93,3.33a10.17,10.17,0,0,0-.11,1.47,10,10,0,0,0,.7,3.69l-9.93,5.3a.39.39,0,0,0,.3.71l11-3.54a9.14,9.14,0,0,0,14.52,0l11,3.54a.39.39,0,0,0,.3-.71l-9.93-5.3a10,10,0,0,0,.7-3.69,10.17,10.17,0,0,0-.12-1.47L200,79.86A.39.39,0,0,0,199.83,79.1Z" fill="#5C9CE5"></path><path d="M153.32,71.88a2.8,2.8,0,0,1-.77,1.47c-.41.48-.83.93-1.28,1.37-.14-3.34-.38-7.34-.75-8.31-.67-1.75-.92-6.74-.92-6.74h.94l.9.25c1.08.25.95.75.95,1.78s0,1.86,0,2.79a20.61,20.61,0,0,0,.7,6.11A3.39,3.39,0,0,1,153.32,71.88Z" opacity="0.1"></path><rect x="50.69" y="254.74" width="298.62" height="11.5" rx="5.75" fill="#24285b"></rect></svg>